<svg width="505" height="505" viewBox="0 0 505 505" fill="none" xmlns="http://www.w3.org/2000/svg">
<path d="M227.733 24.6465L142.576 109.803C139.854 112.526 139.854 116.94 142.576 119.662L182.723 159.808C184.777 161.862 187.889 162.428 190.534 161.226C193.178 160.025 194.802 157.31 194.607 154.41C194.198 148.345 196.582 142.547 201.128 138.504C208.405 132.042 219.424 131.984 226.759 138.368C230.901 141.973 233.287 146.96 233.476 152.41C233.665 157.867 231.644 162.996 227.786 166.855C223.817 170.824 218.318 172.883 212.702 172.505C209.803 172.309 207.086 173.933 205.886 176.577C204.685 179.222 205.249 182.335 207.303 184.389L208.596 185.682C202.55 186.671 196.725 189.314 191.871 193.624C187.958 197.097 184.985 201.328 183.079 205.993L152.435 175.349C149.713 172.627 145.299 172.627 142.576 175.349L57.4194 260.506C43.8293 274.096 43.8293 296.209 57.4194 309.799L227.733 480.113C241.323 493.703 263.436 493.703 277.026 480.113L447.34 309.799C460.93 296.209 460.93 274.096 447.34 260.506L436.803 249.968C434.08 247.246 429.666 247.246 426.944 249.968C424.222 252.691 424.222 257.105 426.944 259.827L437.482 270.365C445.636 278.519 445.636 291.787 437.482 299.941L357.254 380.168L322.037 344.952C319.983 342.898 316.87 342.332 314.225 343.534C311.58 344.734 309.957 347.451 310.153 350.35C310.532 355.967 308.472 361.465 304.503 365.434C300.645 369.292 295.515 371.313 290.059 371.124C284.609 370.935 279.621 368.55 276.015 364.407C269.631 357.072 269.69 346.054 276.152 338.777C280.191 334.229 285.992 331.846 292.058 332.255C294.957 332.45 297.672 330.827 298.874 328.183C300.075 325.538 299.51 322.425 297.456 320.371L262.239 285.154L287.97 259.423C289.63 263.494 292.095 267.242 295.273 270.42C301.799 276.945 310.832 280.504 320.059 280.185C329.415 279.861 337.965 275.778 344.137 268.686C355.107 256.081 355.009 237.148 343.908 224.646C340.434 220.734 336.205 217.76 331.539 215.854L357.255 190.139L382.581 215.465C385.303 218.187 389.717 218.187 392.439 215.465C395.162 212.742 395.162 208.329 392.439 205.606L362.184 175.351C359.461 172.628 355.048 172.628 352.325 175.351L351.851 175.825C350.717 168.989 347.477 162.583 342.52 157.627C339.342 154.449 335.595 151.983 331.524 150.324L362.184 119.663C364.907 116.941 364.907 112.527 362.184 109.804L277.026 24.6465C263.436 11.0564 241.323 11.0564 227.733 24.6465ZM67.278 299.941C59.1239 291.787 59.1239 278.519 67.278 270.365L147.506 190.137L182.723 225.354C184.777 227.408 187.889 227.973 190.534 226.772C193.177 225.571 194.801 222.855 194.607 219.956C194.198 213.891 196.577 208.092 201.128 204.05C208.405 197.589 219.424 197.53 226.759 203.914C230.902 207.519 233.287 212.506 233.476 217.958C233.665 223.414 231.644 228.544 227.786 232.402C223.817 236.371 218.319 238.43 212.703 238.052C209.803 237.856 207.087 239.48 205.887 242.124C204.685 244.769 205.25 247.882 207.304 249.936L242.521 285.153L216.79 310.884C215.13 306.813 212.665 303.065 209.487 299.887C202.962 293.362 193.928 289.803 184.702 290.122C175.346 290.447 166.796 294.532 160.624 301.62C149.653 314.226 149.751 333.159 160.852 345.66C164.325 349.572 168.556 352.547 173.221 354.452L147.505 380.168L67.278 299.941ZM265.726 329.519C254.626 342.02 254.528 360.954 265.498 373.559C271.669 380.649 280.22 384.733 289.575 385.057C298.802 385.376 307.836 381.817 314.361 375.292C317.539 372.114 320.004 368.367 321.664 364.295L347.396 390.027L267.168 470.255C259.014 478.409 245.746 478.409 237.592 470.255L157.364 390.027L192.581 354.81C194.635 352.756 195.201 349.643 193.999 346.998C192.797 344.353 190.081 342.73 187.183 342.926C181.118 343.335 175.321 340.958 171.277 336.405C164.815 329.128 164.757 318.109 171.141 310.774C174.746 306.632 179.733 304.246 185.184 304.057C190.64 303.868 195.77 305.889 199.629 309.747C203.598 313.716 205.657 319.214 205.279 324.831C205.083 327.729 206.706 330.445 209.351 331.646C211.996 332.848 215.109 332.283 217.163 330.229L252.379 295.012L278.095 320.728C273.429 322.632 269.198 325.606 265.726 329.519ZM317.577 227.38C323.641 226.972 329.439 229.349 333.483 233.902C339.944 241.179 340.002 252.198 333.619 259.533C330.012 263.673 325.026 266.061 319.576 266.249C314.119 266.439 308.989 264.418 305.131 260.56C301.162 256.59 299.103 251.092 299.481 245.475C299.676 242.577 298.053 239.861 295.409 238.66C292.764 237.458 289.651 238.023 287.597 240.077L252.38 275.294L226.649 249.563C230.721 247.903 234.468 245.438 237.646 242.26C242.603 237.303 245.843 230.898 246.976 224.061L247.452 224.536C250.174 227.259 254.588 227.259 257.31 224.536L287.955 193.891C289.861 198.557 292.835 202.787 296.747 206.261C301.601 210.571 307.426 213.214 313.472 214.203L312.179 215.496C310.125 217.55 309.56 220.663 310.761 223.308C311.962 225.953 314.678 227.576 317.577 227.38ZM347.396 114.733L312.179 149.949C310.125 152.003 309.56 155.116 310.761 157.761C311.963 160.406 314.679 162.028 317.577 161.833C323.194 161.454 328.692 163.514 332.661 167.483C336.519 171.341 338.54 176.471 338.351 181.927C338.162 187.378 335.777 192.366 331.634 195.971C324.299 202.355 313.28 202.296 306.003 195.834C301.45 191.791 299.073 185.994 299.481 179.929C299.676 177.03 298.053 174.314 295.409 173.113C292.764 171.912 289.651 172.477 287.597 174.531L252.38 209.747L226.649 184.015C230.72 182.356 234.468 179.891 237.646 176.713C244.171 170.187 247.731 161.153 247.411 151.927C247.087 142.571 243.003 134.021 235.913 127.85C223.307 116.879 204.374 116.978 191.873 128.078C187.958 131.553 184.986 135.782 183.081 140.447L157.365 114.732L237.592 34.5051C245.746 26.351 259.014 26.351 267.168 34.505L347.396 114.733Z" fill="#DFB131"/>
<path d="M404.759 227.788C403.463 229.084 402.718 230.883 402.718 232.717C402.718 234.55 403.463 236.35 404.759 237.646C406.056 238.942 407.855 239.687 409.688 239.687C411.522 239.687 413.321 238.942 414.618 237.646C415.914 236.35 416.658 234.551 416.658 232.717C416.663 230.878 415.914 229.084 414.618 227.788C413.321 226.491 411.527 225.742 409.688 225.747C407.855 225.747 406.06 226.486 404.759 227.788Z" fill="#DFB131"/>
</svg>
