<svg width="447" height="446" viewBox="0 0 447 446" fill="none" xmlns="http://www.w3.org/2000/svg">
<g id="Group 7">
<g id="Frame" clip-path="url(#clip0)">
<g id="Group">
<path id="Vector" d="M232.76 425.51V354.07C232.76 349.9 230.18 346.17 226.27 344.71C222.37 343.24 217.97 344.35 215.23 347.49C209.92 353.57 202.25 357.06 194.2 357.06C186.37 357.06 179.12 353.91 173.78 348.18C168.44 342.46 165.8 334.98 166.35 327.12C167.31 313.2 178.55 302.09 192.49 301.26C201.2 300.74 209.5 304.21 215.24 310.78C217.98 313.92 222.38 315.03 226.28 313.56C230.18 312.1 232.77 308.36 232.77 304.2V232.76V212.76H212.77H180.98H160.57C163.02 206.95 164.32 200.65 164.32 194.2C164.32 180.96 158.77 168.19 149.08 159.15C139.26 149.99 126.44 145.46 112.99 146.39C89.08 148.05 69.97 167.35 68.55 191.29C68.1 198.78 69.38 206.09 72.18 212.75H63.25H20H0V395.51C0 423.08 22.43 445.51 50 445.51H232.76V425.51ZM212.76 425.51H50C33.46 425.51 20 412.05 20 395.51V232.76H91.44C95.61 232.76 99.34 230.18 100.8 226.27C102.26 222.37 101.15 217.97 98.02 215.23C91.45 209.49 87.98 201.2 88.5 192.48C89.33 178.54 100.45 167.31 114.36 166.34C122.22 165.8 129.7 168.43 135.42 173.77C141.15 179.11 144.3 186.37 144.3 194.19C144.3 202.24 140.81 209.91 134.73 215.22C131.59 217.96 130.48 222.36 131.95 226.26C133.41 230.16 137.15 232.75 141.31 232.75H212.75V284.92C206.08 282.12 198.78 280.84 191.29 281.29C167.35 282.71 148.05 301.82 146.39 325.73C145.46 339.18 149.99 352 159.15 361.81C168.19 371.49 180.96 377.05 194.2 377.05C200.65 377.05 206.95 375.75 212.76 373.3V425.51Z" fill="black"/>
</g>
<g id="Group_2">
<path id="Vector_2" d="M20 232.76H91.44C95.61 232.76 99.34 230.18 100.8 226.27C102.27 222.37 101.16 217.97 98.02 215.23C91.94 209.92 88.45 202.25 88.45 194.2C88.45 186.37 91.6 179.12 97.33 173.78C103.05 168.44 110.53 165.8 118.39 166.35C132.31 167.31 143.42 178.55 144.25 192.49C144.77 201.2 141.3 209.5 134.73 215.24C131.59 217.98 130.48 222.38 131.95 226.28C133.41 230.18 137.15 232.77 141.31 232.77H212.75H232.75V212.77V180.98V160.57C238.56 163.02 244.86 164.32 251.31 164.32C264.55 164.32 277.32 158.77 286.36 149.08C295.52 139.26 300.05 126.44 299.12 112.99C297.46 89.08 278.16 69.97 254.22 68.55C246.73 68.1 239.42 69.38 232.76 72.18V63.25V20V0H50C22.43 0 0 22.43 0 50V232.76H20ZM20 212.76V50C20 33.46 33.46 20 50 20H212.76V91.44C212.76 95.61 215.34 99.34 219.25 100.8C223.15 102.26 227.55 101.15 230.29 98.02C236.03 91.45 244.32 87.98 253.04 88.5C266.98 89.33 278.21 100.45 279.18 114.36C279.72 122.22 277.09 129.7 271.75 135.42C266.41 141.15 259.15 144.3 251.33 144.3C243.28 144.3 235.61 140.81 230.3 134.73C227.56 131.59 223.16 130.48 219.26 131.95C215.36 133.41 212.77 137.15 212.77 141.31V212.75H160.6C163.4 206.08 164.68 198.78 164.23 191.29C162.81 167.35 143.7 148.05 119.79 146.39C106.34 145.46 93.52 149.99 83.71 159.15C74.03 168.19 68.47 180.96 68.47 194.2C68.47 200.65 69.77 206.95 72.22 212.76H20Z" fill="#F9B233"/>
</g>
</g>
<g id="Group_3">
<path id="Vector_3" d="M213.01 20V91.44C213.01 95.61 215.59 99.34 219.5 100.8C223.4 102.27 227.8 101.16 230.54 98.02C235.85 91.94 243.52 88.45 251.57 88.45C259.4 88.45 266.65 91.6 271.99 97.33C277.33 103.05 279.97 110.53 279.42 118.39C278.46 132.31 267.22 143.42 253.28 144.25C244.57 144.77 236.27 141.3 230.53 134.73C227.79 131.59 223.39 130.48 219.49 131.95C215.59 133.41 213 137.15 213 141.31V212.75V232.75H233H264.79H285.2C282.75 238.56 281.45 244.86 281.45 251.31C281.45 264.55 287 277.32 296.69 286.36C306.51 295.52 319.33 300.05 332.78 299.12C356.69 297.46 375.8 278.16 377.22 254.22C377.67 246.73 376.39 239.42 373.59 232.76H382.52H425.76H445.76V50C445.76 22.43 423.33 0 395.76 0H213.01V20ZM233.01 20H395.77C412.31 20 425.77 33.46 425.77 50V212.76H354.33C350.16 212.76 346.43 215.34 344.97 219.25C343.51 223.15 344.62 227.55 347.75 230.29C354.32 236.03 357.79 244.32 357.27 253.04C356.44 266.98 345.32 278.21 331.41 279.18C323.55 279.72 316.07 277.09 310.35 271.75C304.62 266.41 301.47 259.15 301.47 251.33C301.47 243.28 304.96 235.61 311.04 230.3C314.18 227.56 315.29 223.16 313.82 219.26C312.36 215.36 308.62 212.77 304.46 212.77H233.02V160.6C239.69 163.4 246.99 164.68 254.48 164.23C278.42 162.81 297.72 143.7 299.38 119.79C300.31 106.34 295.78 93.52 286.62 83.71C277.58 74.03 264.81 68.47 251.57 68.47C245.12 68.47 238.82 69.77 233.01 72.22V20Z" fill="black"/>
</g>
<g id="Group_4">
<g id="Group_5">
<path id="Vector_4" d="M425.239 374.39V395.77C425.239 412.34 411.809 425.77 395.239 425.77H232.489V354.62C232.489 350.99 230.679 347.5 227.529 345.68C223.299 343.23 218.059 344.18 214.959 347.74C209.219 354.31 200.929 357.78 192.209 357.26C178.269 356.43 167.039 345.31 166.069 331.4C165.529 323.54 168.159 316.06 173.499 310.34C178.839 304.61 186.099 301.46 193.919 301.46C201.969 301.46 209.639 304.95 214.949 311.03C216.499 312.81 218.579 314.1 220.929 314.39C227.499 315.18 232.479 310.24 232.479 304.46V233.02H284.649C281.849 239.69 280.569 246.99 281.019 254.48C282.439 278.42 301.549 297.72 325.459 299.38C338.909 300.31 351.729 295.78 361.539 286.62C371.219 277.58 376.779 264.81 376.779 251.57C376.779 245.12 375.479 238.82 373.029 233.01H425.229V284.39C425.229 289.91 429.709 294.39 435.229 294.39C440.749 294.39 445.229 289.91 445.229 284.39V213.01H425.229H354.099C350.459 213.01 346.979 214.82 345.159 217.96C342.709 222.19 343.659 227.43 347.219 230.54C353.299 235.85 356.789 243.52 356.789 251.57C356.789 259.4 353.639 266.65 347.909 271.99C342.189 277.33 334.709 279.97 326.849 279.42C312.929 278.46 301.819 267.22 300.989 253.28C300.479 244.65 303.879 236.42 310.329 230.69C312.569 228.7 314.009 225.92 313.949 222.93C313.819 217.18 309.229 213 303.929 213H232.489H212.489V233V264.79V285.2C206.679 282.75 200.379 281.45 193.929 281.45C180.689 281.45 167.919 287 158.879 296.69C149.719 306.51 145.189 319.33 146.119 332.78C147.779 356.69 167.079 375.8 191.019 377.22C198.509 377.67 205.819 376.39 212.479 373.59V382.52V425.76V445.76H395.239C422.849 445.76 445.239 423.37 445.239 395.76V374.38C445.239 368.86 440.759 364.38 435.239 364.38C429.719 364.39 425.239 368.87 425.239 374.39Z" fill="#F9B233"/>
</g>
<path id="Vector_5" d="M436.219 339.4C441.742 339.4 446.219 334.923 446.219 329.4C446.219 323.877 441.742 319.4 436.219 319.4C430.696 319.4 426.219 323.877 426.219 329.4C426.219 334.923 430.696 339.4 436.219 339.4Z" fill="#F9B233"/>
</g>
</g>
<defs>
<clipPath id="clip0">
<rect width="446.49" height="445.51" fill="white"/>
</clipPath>
</defs>
</svg>
